/* XPM */
static char *BigSanta4[] = {
/* width height num_colors chars_per_pixel */
"   177    34       17            1",
/* colors */
". c #ffffff",
"# c #ff9933",
"a c #f1f1f1",
"b c #cccccc",
"c c #cc9999",
"d c #cc9933",
"e c #cc6633",
"f c #cc0000",
"g c none",
"h c #993333",
"i c #990000",
"j c #663300",
"k c #33cc00",
"l c #111111",
"m c #009900",
"n c #0066cc",
"o c #003399",
/* pixels */
"ggggggggggggggggggggggggggggggggggggggggggggggggggggggggggggggggggggggggggggggggggggghggggggggggggggggggggggggggggggggggggggggggggggggggggggggggggggggggggggggghggghggggggggggggg",
"gggggggggggggggggggggggggggggggggggggggggggggggggggggggggggggggggggggggggggggggghgggghghhhggggggggggggggggggggggggggggggggghggghggggggggggggggggggggggggggggggghhgghhghhhgggggggg",
"gggggggggggggggggggggggggggggggggggggggggggggggggggggggggggggggggggggggggggggggghhggghhhggggggggggggggggggggggggggggggggggghhgghhggggggggggggggggggggggggggggggghhgghhhgggggggggg",
"ggggggggggggggggggggggggggggggggggggggggggggggggggggggggggggggggggggggggggggggggghhhghhggggggggggggggggggggggggggggggggggggghhgghhhhggggggggggggggggggggggggggggghhhhgggggggggggg",
"ggggggggggggggggggggggggggggggggggggggggggggggggggggggggggggggggggggggggggggggggggghhhggggggggggggggggggggggggggggggggggggggghhhhgggggggggggggggggggggggggggggggggghhgggggggggggg",
"ggggggggggggggggggggggffffggggggggggggggggggggggggggggggggggggggggggggggggggggggggggghgggggggggggggggggggggggggggggggggggggggghhgggggggggggggggggggggggggggggggggggghhggggggggggg",
"ggggggggggggggggggggffiffffgggggggggggggggggggggggggggggggggggggggggggggggggggggggggghhgggggghggggggggggggggggggggggggggggggggghgggggggggggggggggggggggggggggggggggghhgggggghgggg",
"gggggggggggggggggggififfffffgggggggggggggggggggggggggggggggggggggggggggggggggggggggggghhggggghhhhgggggggggggggggggggggggggggggghhggggggghgggggggggggggggggggggggggggghhggggghghhg",
"ggggggggggggggggggffiffifffffaggggggggggggggggggggggggggggggggggggggggggggggggggggggggghhgggghhhgggggggggggggggggggggggggggggggghhggggghhhhggggggggggggggggggggggggggghhgggghhhgg",
"gggggggggggggggggfiifiififffbggggggggggggggggggggggggggggggggggggggggggggggggggggggggggghhhhhhhgggggggggggggggggggggggggggggggggghhhgghhhhggggggggggggggggggggggggggggghhhhhhhggg",
"ggggggggggggggggfigggffiffcacggggggggggggggggggggggggggggggggggggggggggggggggggggggggggggghhggggggggggggggggggggggggggggggggggggggghhhhgggggggggggggggggggggggggggggggggghhgggggg",
"gggggggggggggggaigggggiffcalccggggggggggggggggggggggggggggggggggggggggggggggggggggggggggheeeeeggggggggggggggggggggggggggggggggggggeeeeeegggggggggggggggggggggggggggggggheeeeggggg",
"gggggggggggggga.agggggfbabcccccggggggggggggggggggggggggggggggggggggggggggggggggggggggllehhjjheeggggggggggggggggggggggggggggggggeejhheheegggggggggggggggggggggggggggggeejhheheeggg",
"gggggggggggggggaggggggbbbabcbbccgggggggggggggggggggggggggggggggggggggeeeeeeggggggeeeellejjjeeleeggggggggggggeeeeeeeeggggggeelleeejhjeeleegggggggggggeeeeeeggggggeeellleejjeeleegg",
"ggggggggggggggggiffggggbbbaabaacggggggggggggggggggggggggggggggggggeeeeeeeeeeeeeeeeeeeelleeeeeeeeegggggggggeeeeeeeeeeeeeeeeeeelleeeeeeeeeeggggggggeeeeeeeeeeeeeeeeeeelleeeeeeeeeeg",
"ggggggggggggggggfffggggbabbbabaggglgggggggggggggggggggggggggggggggeeeeeeeeeeeeeeeeeeeeelleehhheejgggggggggeeeeeeeeeeeeeeeeeeeelleeehheeeeelglglgleeeeeeeeeeeeeeeeeeeelleeehheeejg",
"gggggggggggggggbifihhggiiibabbaggffggggggggggggggggggggggggggggggeeeeeeeeeeeeeeeeeeeeeeellhhhhhejlglglglgeeeeeeeeeeeeeeeeeeeeeeelhhhheeeejggggeeeeeeeeeeeeeeeeeeeeeeelllhhheheejg",
"gggggggagaggkfmbbbbhhgifiiiiacffafffggggggggggggggggggggggggggglgeeeeeeeeeehhheeeeeeeeehellggghhgggggggggeeeeeeeeeehhheeeeeeeeehelhhgggeejggggeeeeeeeeeehhheeeeeeeeeheellhggghegg",
"gggbgnbnanfgkf##f#fhhgiffffiffffaffflllglglgllglglglglglglglglgggheeeeeeeeehhheeeeeeehhehhlllggggggggggggheeeeeeeeehhheeeeeeehhehllgggggggggggheeeeeeeeehhheeeeeeehhehhelgggggggg",
"gggbbbnnffofafk##ffghhiffffffiiigggggggggggggggggggggggggggggggggeeeeeeeeeeehheeeeeeehhhelllllllllllllllleeeeeeeeeeehheeeeeeehhhellllggggggllleeeeeeeeeeehheeeeeeehhheheggggggggg",
"gmm#bmmmffoffnno#nonhhiififiiifagggghhgggggggggggggggggggggglllllheeeeeeeeeehehhheeeeehhgggggllllllllllllheeeeeeeeeehehhheeeeehhglllllllllllllheeeeeeeeeehehhheeeeehhgggggggggggg",
"gmdmbdmmfaoffnnn#nnnhhiiffiiffffagghghlllllllllllllllllllllllllllhheeeeeeeehhehheeeeeeehggggggggggggggggghheeeeeeeehhehheeeeeeehggggglllllllgghheeeeeeeehhehheeeeeeehgggggggggggg",
"gmmmbmmdffofgnnn#nonhhiiiffffffffaggghhlllllllllllllllllllllgggggghheeeeeehheehhhheeeeeegggggggggggggggggghheeeeeehheehhhheeeeeeggggggggggggggghheeeeeehheehhhheeeeeegggggggggggg",
"ghdmbdmmgggggnno#nnnhhhiiifffffffagggghhgggggggggggggggggggggggggggggeeeeehgggggghhheeeegggggggggggggggggggggeeeeehgggggghhheeeeggggggggggggggggggeeeeehgggggghhheeeegggggggggggg",
"h#mmbm#mgggggnnn#onnghhiiiiiffffffaggghhggggggggggggggggggggggggggggeeeehhggggggggggeeehggggggggggggggggggggeeeehhggggggggggeeehgggggggggggggggggeeeehhggggggggggeeehgggggggggggg",
"hgggggggggggggggggggghhgiiiiiiffffaggghhggggggggggggggggggggggggggggeeehgggggggggggggeeeggggggggggggggggggggeeehgggggggggggggeeegggggggggggggggggeeehgggggggggggggeeegggggggggggg",
"ghhhhhhhhhhhhhhhhhhhhhhhhhhhhhhhhhhhhhhhgggggggggggggggggggggggggggeeehhgggggggggggggeeeeggggggggggggggggggeeehhgggggggggggggeeeegggggggggggggggeeehhgggggggggggggeeeeggggggggggg",
"gjjjjjjjjjjjjjjjjjjjjjjjjjjjjjjjjjjjjjhhgggggggggggggggggggggggggggeehhgggggggggggggggeeeggggggggggggggggggeehhgggggggggggggggeeegggggggggggggggeehhgggggggggggggggeeeggggggggggg",
"gggggjjgggggggggggggggggggjjiiiiiiaggghhgggggggggggggggggggggggggggeehhgggggggggggggggheeggggggggggggggggggeehhgggggggggggggggheegggggggggggggggeehhgggggggggggggggheeggggggggggg",
"gggggjjgggggggggggggggggggjjaaaaaallgghhggggggggggggggggggggggggggglehlgggggggggggggggheegggggggggggggggggglehlgggggggggggggggheeggggggggggggggglehlgggggggggggggggheeggggggggggg",
"gghggjjgggggggggggggggggggjjggllllllghhhgggggggggggggggggggggggggggllgggggggggggggggghheeggggggggggggggggggllgggggggggggggggghheegggggggggggggggllgggggggggggggggghheeggggggggggg",
"ghgggjjgggggggggggggggggggjjggglll..hhhggggggggggggggggggggggggggggggggggggggggggggggllelggggggggggggggggggggggggggggggggggggllelgggggggggggggggggggggggggggggggggllelggggggggggg",
"gghhhhhhhhhhhhhhhhhhhhhhhhhhhhhhhhhhhhgggggggggggggggggggggggggggggggggggggggggggggggggllggggggggggggggggggggggggggggggggggggggllgggggggggggggggggggggggggggggggggggllggggggggggg",
"ggggggggggggggggggggggggggggggggggggggggggggggggggggggggggggggggggggggggggggggggggggggggggggggggggggggggggggggggggggggggggggggggggggggggggggggggggggggggggggggggggggggggggggggggg"
};
