/* XPM */
static char *BigSanta2[] = {
/* width height num_colors chars_per_pixel */
"   177    34       18            1",
/* colors */
". c #ffffff",
"# c #ff9933",
"a c #f1f1f1",
"b c #cccccc",
"c c #cc9999",
"d c #cc9933",
"e c #cc6633",
"f c #cc0000",
"g c none",
"h c #b2b2b2",
"i c #993333",
"j c #990000",
"k c #663300",
"l c #33cc00",
"m c #111111",
"n c #009900",
"o c #0066cc",
"p c #003399",
/* pixels */
"gggggggggggggggggggggggggggggggggggggggggggggggggggggggggggggggggggggggggggggggggggggigggggggggggggggggggggggggggggggggggggggggggggggggggggggggggggggggggggggggigggiggggggggggggg",
"ggggggggggggggggggggggggggggggggggggggggggggggggggggggggggggggggggggggggggggggggiggggigiiigggggggggggggggggggggggggggggggggigggigggggggggggggggggggggggggggggggiiggiigiiigggggggg",
"ggggggggggggggggggggggggggggggggggggggggggggggggggggggggggggggggggggggggggggggggiigggiiigggggggggggggggggggggggggggggggggggiiggiigggggggggggggggggggggggggggggggiiggiiigggggggggg",
"gggggggggggggggggggggggggggggggggggggggggggggggggggggggggggggggggggggggggggggggggiiigiigggggggggggggggggggggggggggggggggggggiiggiiiigggggggggggggggggggggggggggggiiiigggggggggggg",
"gggggggggggggggggggggggggggggggggggggggggggggggggggggggggggggggggggggggggggggggggggiiigggggggggggggggggggggggggggggggggggggggiiiiggggggggggggggggggggggggggggggggggiigggggggggggg",
"ggggggggggggggggggggggffffgggggggggggggggggggggggggggggggggggggggggggggggggggggggggggiggggggggggggggggggggggggggggggggggggggggiiggggggggggggggggggggggggggggggggggggiiggggggggggg",
"ggggggggggggggggggggffjffffggggggggggggggggggggggggggggggggggggggggggggggggggggggggggiiggggggigggggggggggggggggggggggggggggggggiggggggggggggggggggggggggggggggggggggiiggggggigggg",
"gggggggggggggggggggjfjffffffggggggggggggggggggggggggggggggggggggggggggggggggggggggggggiigggggiiiiggggggggggggggggggggggggggggggiigggggggiggggggggggggggggggggggggggggiigggggigiig",
"ggggggggggggggggggffjffjfffffagggggggggggggggggggggggggggggggggggggggggggggggggggggggggiiggggiiiggggggggggggggggggggggggggggggggiigggggiiiigggggggggggggggggggggggggggiiggggiiigg",
"gggggggggggggggggfjjfjjfjfffbgggggggggggggggggggggggggggggggggggggggggggggggggggggggggggiiiiiiiggggggggggggggggggggggggggggggggggiiiggiiiigggggggggggggggggggggggggggggiiiiiiiggg",
"ggggggggggggggggfjgggffjffcacgggggggggggggggggggggggggggggggggggggggggggggggggggggggggggggiigggggggggggggggggggggggggggggggggggggggiiiiggggggggggggggggggggggggggggggggggiigggggg",
"ggggggggggggggg.jgggggjffcamccggggggggggggggggggggggggggggggggggggggggggggggggggggggggggieeeeeggggggggggggggggggggggggggggggggggggeeeeeegggggggggggggggggggggggggggggggieeeeggggg",
"gggggggggggggg...gggggfbabcccccggggggggggggggggggggggggggggggggggggggggggggggggggggggmmeiikkieeggggggggggggggggggggggggggggggggeekiieieegggggggggggggggggggggggggggggeekiieieeggg",
"ggggggggggggggg.ggggggbbbabcbbccgggggggggggggggggggggggggggggggggggggeeeeeeggggggeeeemmekkkeemeeggggggggggggeeeeeeeeggggggeemmeeekikeemeegggggggggggeeeeeeggggggeeemmmeekkeemeegg",
"ggggggggggggggggjffggggbbbaabaacggggggggggggggggggggggggggggggggggeeeeeeeeeeeeeeeeeeeemmeeeeeeeeegggggggggeeeeeeeeeeeeeeeeeeemmeeeeeeeeeeggggggggeeeeeeeeeeeeeeeeeeemmeeeeeeeeeeg",
"ggggggggggggggggfffggggbabbbabagggmgggggggggggggggggggggggggggggggeeeeeeeeeeeeeeeeeeeeemmeeiiieekgggggggggeeeeeeeeeeeeeeeeeeeemmeeeiieeeeemgmgmgmeeeeeeeeeeeeeeeeeeeemmeeeiieeekg",
"gggggggggggggggbjfjiiggjjjbabbaggffggggggggggggggggggggggggggggggeeeeeeeeeeeeeeeeeeeeeeemmiiiiiekmgmgmgmgeeeeeeeeeeeeeeeeeeeeeemmiiiieeeekggggggeeeeeeeeeeeeeeeeeeeeeemmiiieieekg",
"gggggggagagglfnbbbbiigjfjjjjahffafffgggggggggggggggggggggggggggmgeeeeeeeeeeeeeeeeeeeeeeiemmgggiigggggggggeeeeeeeeeeeeeeeeeeeeeeiemiigggeekggggggeeeeeeeeeeeeeeeeeeeeeeiemigggiegg",
"gggbgoboaofglf##f#fiigjffffjffffafffmmmgmgmgmmgmgmgmgmgmgmgmgmgggieeeeeieeeeeeeeeeeeeiieiimmmggggggggggggieeeeeieeeeeeeeeeeeeiieimmgggggggggggggieeeeeieeeeeeeeeeeeeiieimgggggggg",
"gggbbbooffpfafl##ff.iijffffffjjjgggggggggggggggggggggggggggggggggieeeeeeiiieeeeeeeeeeiiiemmmmmmmmmmmmmmmmieeeeeeiiieeeeeeeeeeiiiemmmmggggggmmmmmieeeeeeiiieeeeeeeeeeiiieggggggggg",
"gnn#bnnnffpffoop#opoiijjfjfjjjfaggggiiggggggggggggggggggggggmmmmmiieeeeeiiiiiiiiieeeeeiigggggmmmmmmmmmmmmiieeeeeiiiiiiiiieeeeeiiggmmmmmmmmmmmmmmiieeeeeiiiiiiiiieeeeeiigggggggggg",
"gndnbdnnfapffooo#oooiijjffjjffffaggigimmmmmmmmmmmmmmmmmmmmmmmmmmmiieeeeeeiiiiiiieeeeeeeggggggggggggggggggiieeeeeeiiiiiiieeeeeeeggggggmmmmmmmggggiieeeeeeiiiiiiieeeeeeeggggggggggg",
"gnnnbnndffpfgooo#opoiijjjffffffffagggiimmmmmmmmmmmmmmmmmmmmmgggggiieeeeeeggiiiiiiieeeeeggggggggggggggggggiieeeeeeggiiiiiiieeeeegggggggggggggggggiieeeeeeggiiiiiiieeeeeggggggggggg",
"gidnbdnngggggoop#oooiiijjjfffffffaggggiiggggggggggggggggggggggggggiieeeeeggggggggiiieeeeggggggggggggggggggiieeeeeggggggggiiieeeegggggggggggggggggiieeeeeggggggggiiieeeegggggggggg",
"i#nnbn#ngggggooo#poogiijjjjjffffffagggiigggggggggggggggggggggggggggieeeeggggggggggggeeeigggggggggggggggggggieeeeggggggggggggeeeiggggggggggggggggggieeeeggggggggggggeeeigggggggggg",
"iggggggggggggggggggggiigjjjjjjffffagggiigggggggggggggggggggggggggggeeeeegggggggggggggeeigggggggggggggggggggeeeeegggggggggggggeeiggggggggggggggggggeeeeegggggggggggggeeigggggggggg",
"giiiiiiiiiiiiiiiiiiiiiiiiiiiiiiiiiiiiiiigggggggggggggggggggggggggggeeeiggggggggggggggeeigggggggggggggggggggeeeiggggggggggggggeeiggggggggggggggggggeeeiggggggggggggggeeigggggggggg",
"gkkkkkkkkkkkkkkkkkkkkkkkkkkkkkkkkkkkkkiigggggggggggggggggggggggggggeeeigggggggggggggeeemgggggggggggggggggggeeeigggggggggggggeeemggggggggggggggggggeeeigggggggggggggeeemgggggggggg",
"gggggkkgggggggggggggggggggkkjjjjjjagggiiggggggggggggggggggggggggggggeeiggggggggggggmmeggggggggggggggggggggggeeiggggggggggggmmegggggggggggggggggggggeeiggggggggggggmmegggggggggggg",
"gggggkkgggggggggggggggggggkkaaaaaammggiiggggggggggggggggggggggggggggeeigggggggggggggggggggggggggggggggggggggeeiggggggggggggggggggggggggggggggggggggeeiggggggggggggggggggggggggggg",
"ggiggkkgggggggggggggggggggkkggmmmmmmgiiiggggggggggggggggggggggggggggeeiiggggggggggggggggggggggggggggggggggggeeiigggggggggggggggggggggggggggggggggggeeiigggggggggggggggggggggggggg",
"gigggkkgggggggggggggggggggkkgggmmmggiiiggggggggggggggggggggggggggggggeemgggggggggggggggggggggggggggggggggggggeemggggggggggggggggggggggggggggggggggggeemgggggggggggggggggggggggggg",
"ggiiiiiiiiiiiiiiiiiiiiiiiiiiiiiiiiiiiigggggggggggggggggggggggggggggggmmggggggggggggggggggggggggggggggggggggggmmgggggggggggggggggggggggggggggggggggggmmggggggggggggggggggggggggggg",
"ggggggggggggggggggggggggggggggggggggggggggggggggggggggggggggggggggggggggggggggggggggggggggggggggggggggggggggggggggggggggggggggggggggggggggggggggggggggggggggggggggggggggggggggggg"
};
