/* XPM */
static char *BigSantaRudolf4[] = {
/* width height num_colors chars_per_pixel */
"   177    34       19            1",
/* colors */
". c #ffffff",
"# c #ff9933",
"a c #ff0000",
"b c #f1f1f1",
"c c #cccccc",
"d c #cc9999",
"e c #cc9933",
"f c #cc6633",
"g c #cc0000",
"h c none",
"i c #b2b2b2",
"j c #993333",
"k c #990000",
"l c #663300",
"m c #33cc00",
"n c #111111",
"o c #009900",
"p c #0066cc",
"q c #003399",
/* pixels */
"hhhhhhhhhhhhhhhhhhhhhhhhhhhhhhhhhhhhhhhhhhhhhhhhhhhhhhhhhhhhhhhhhhhhhhhhhhhhhhhhhhhhhjhhhhhhhhhhhhhhhhhhhhhhhhhhhhhhhhhhhhhhhhhhhhhhhhhhhhhhhhhhhhhhhhhhhhhhhhhjhhhjhhhhhhhhhhhhh",
"hhhhhhhhhhhhhhhhhhhhhhhhhhhhhhhhhhhhhhhhhhhhhhhhhhhhhhhhhhhhhhhhhhhhhhhhhhhhhhhhjhhhhjhjjjhhhhhhhhhhhhhhhhhhhhhhhhhhhhhhhhhjhhhjhhhhhhhhhhhhhhhhhhhhhhhhhhhhhhhjjhhjjhjjjhhhhhhhh",
"hhhhhhhhhhhhhhhhhhhhhhhhhhhhhhhhhhhhhhhhhhhhhhhhhhhhhhhhhhhhhhhhhhhhhhhhhhhhhhhhjjhhhjjjhhhhhhhhhhhhhhhhhhhhhhhhhhhhhhhhhhhjjhhjjhhhhhhhhhhhhhhhhhhhhhhhhhhhhhhhjjhhjjjhhhhhhhhhh",
"hhhhhhhhhhhhhhhhhhhhhhhhhhhhhhhhhhhhhhhhhhhhhhhhhhhhhhhhhhhhhhhhhhhhhhhhhhhhhhhhhjjjhjjhhhhhhhhhhhhhhhhhhhhhhhhhhhhhhhhhhhhhjjhhjjjjhhhhhhhhhhhhhhhhhhhhhhhhhhhhhjjjjhhhhhhhhhhhh",
"hhhhhhhhhhhhhhhhhhhhhhhhhhhhhhhhhhhhhhhhhhhhhhhhhhhhhhhhhhhhhhhhhhhhhhhhhhhhhhhhhhhjjjhhhhhhhhhhhhhhhhhhhhhhhhhhhhhhhhhhhhhhhjjjjhhhhhhhhhhhhhhhhhhhhhhhhhhhhhhhhhhjjhhhhhhhhhhhh",
"hhhhhhhhhhhhhhhhhhhhhhgggghhhhhhhhhhhhhhhhhhhhhhhhhhhhhhhhhhhhhhhhhhhhhhhhhhhhhhhhhhhjhhhhhhhhhhhhhhhhhhhhhhhhhhhhhhhhhhhhhhhhjjhhhhhhhhhhhhhhhhhhhhhhhhhhhhhhhhhhhhjjhhhhhhhhhhh",
"hhhhhhhhhhhhhhhhhhhhggkgggghhhhhhhhhhhhhhhhhhhhhhhhhhhhhhhhhhhhhhhhhhhhhhhhhhhhhhhhhhjjhhhhhhjhhhhhhhhhhhhhhhhhhhhhhhhhhhhhhhhhjhhhhhhhhhhhhhhhhhhhhhhhhhhhhhhhhhhhhjjhhhhhhjhhhh",
"hhhhhhhhhhhhhhhhhhhkgkgggggghhhhhhhhhhhhhhhhhhhhhhhhhhhhhhhhhhhhhhhhhhhhhhhhhhhhhhhhhhjjhhhhhjjjjhhhhhhhhhhhhhhhhhhhhhhhhhhhhhhjjhhhhhhhjhhhhhhhhhhhhhhhhhhhhhhhhhhhhjjhhhhhjhjjh",
"hhhhhhhhhhhhhhhhhhggkggkgggggbhhhhhhhhhhhhhhhhhhhhhhhhhhhhhhhhhhhhhhhhhhhhhhhhhhhhhhhhhjjhhhhjjjhhhhhhhhhhhhhhhhhhhhhhhhhhhhhhhhjjhhhhhjjjjhhhhhhhhhhhhhhhhhhhhhhhhhhhjjhhhhjjjhh",
"hhhhhhhhhhhhhhhhhgkkgkkgkgggchhhhhhhhhhhhhhhhhhhhhhhhhhhhhhhhhhhhhhhhhhhhhhhhhhhhhhhhhhhjjjjjjjhhhhhhhhhhhhhhhhhhhhhhhhhhhhhhhhhhjjjhhjjjjhhhhhhhhhhhhhhhhhhhhhhhhhhhhhjjjjjjjhhh",
"hhhhhhhhhhhhhhhhgkhhhggkggdbdhhhhhhhhhhhhhhhhhhhhhhhhhhhhhhhhhhhhhhhhhhhhhhhhhhhhhhhhhhhhhjjhhhhhhhhhhhhhhhhhhhhhhhhhhhhhhhhhhhhhhhjjjjhhhhhhhhhhhhhhhhhhhhhhhhhhhhhhhhhhjjhhhhhh",
"hhhhhhhhhhhhhhh.khhhhhkggdbnddhhhhhhhhhhhhhhhhhhhhhhhhhhhhhhhhhhhhhhhhhhhhhhhhhhhhhhhhhhjfffffhhhhhhhhhhhhhhhhhhhhhhhhhhhhhhhhhhhhffffffhhhhhhhhhhhhhhhhhhhhhhhhhhhhhhhjffffhhhhh",
"hhhhhhhhhhhhhh...hhhhhgcbcdddddhhhhhhhhhhhhhhhhhhhhhhhhhhhhhhhhhhhhhhhhhhhhhhhhhhhhhhnnfjjlljffhhhhhhhhhhhhhhhhhhhhhhhhhhhhhhhhffljjfjffhhhhhhhhhhhhhhhhhhhhhhhhhhhhhffljjfjffhhh",
"hhhhhhhhhhhhhhh.hhhhhhcccbcdccddhhhhhhhhhhhhhhhhhhhhhhhhhhhhhhhhhhhhhffffffhhhhhhffffnnflllffnffhhhhhhhhhhhhffffffffhhhhhhffnnfffljlffnffhhhhhhhhhhhffffffhhhhhhfffnnnffllffnffhh",
"hhhhhhhhhhhhhhhhkgghhhhcccbbcbbdhhhhhhhhhhhhhhhhhhhhhhhhhhhhhhhhhhffffffffffffffffffffnnfffffffffhhhhhhhhhfffffffffffffffffffnnffffffffffhhhhhhhhfffffffffffffffffffnnffffffffaaa",
"hhhhhhhhhhhhhhhhggghhhhcbcccbcbhhhnhhhhhhhhhhhhhhhhhhhhhhhhhhhhhhhfffffffffffffffffffffnnffjjjfflhhhhhhhhhffffffffffffffffffffnnfffjjfffffnhnhnhnffffffffffffffffffffnnfffjjffaaa",
"hhhhhhhhhhhhhhhckgkjjhhkkkcbccbhhgghhhhhhhhhhhhhhhhhhhhhhhhhhhhhhfffffffffffffffffffffffnnjjjjjflnhnhnhnhfffffffffffffffffffffffnjjjjfffflhhhhfffffffffffffffffffffffnnnjjjfjfaaa",
"hhhhhhhbhbhhmgoccccjjhkgkkkkbiggbggghhhhhhhhhhhhhhhhhhhhhhhhhhhnhffffffffffjjjfffffffffjfnnhhhjjhhhhhhhhhffffffffffjjjfffffffffjfnjjhhhfflhhhhffffffffffjjjfffffffffjffnnjhhhjfhh",
"hhhchpcpbpghmg##g#gjjhkggggkggggbgggnnnhnhnhnnhnhnhnhnhnhnhnhnhhhjfffffffffjjjfffffffjjfjjnnnhhhhhhhhhhhhjfffffffffjjjfffffffjjfjnnhhhhhhhhhhhjfffffffffjjjfffffffjjfjjfnhhhhhhhh",
"hhhcccppggqgbgm##gghjjkggggggkkkhhhhhhhhhhhhhhhhhhhhhhhhhhhhhhhhhfffffffffffjjfffffffjjjfnnnnnnnnnnnnnnnnfffffffffffjjfffffffjjjfnnnnhhhhhhnnnfffffffffffjjfffffffjjjfjfhhhhhhhhh",
"hoo#coooggqggppq#pqpjjkkgkgkkkgbhhhhjjhhhhhhhhhhhhhhhhhhhhhhnnnnnjffffffffffjfjjjfffffjjhhhhhnnnnnnnnnnnnjffffffffffjfjjjfffffjjhnnnnnnnnnnnnnjffffffffffjfjjjfffffjjhhhhhhhhhhhh",
"hoeoceoogbqggppp#pppjjkkggkkggggbhhjhjnnnnnnnnnnnnnnnnnnnnnnnnnnnjjffffffffjjfjjfffffffjhhhhhhhhhhhhhhhhhjjffffffffjjfjjfffffffjhhhhhnnnnnnnhhjjffffffffjjfjjfffffffjhhhhhhhhhhhh",
"hooocooeggqghppp#pqpjjkkkggggggggbhhhjjnnnnnnnnnnnnnnnnnnnnnhhhhhhjjffffffjjffjjjjffffffhhhhhhhhhhhhhhhhhhjjffffffjjffjjjjffffffhhhhhhhhhhhhhhhjjffffffjjffjjjjffffffhhhhhhhhhhhh",
"hjeoceoohhhhhppq#pppjjjkkkgggggggbhhhhjjhhhhhhhhhhhhhhhhhhhhhhhhhhhhhfffffjhhhhhhjjjffffhhhhhhhhhhhhhhhhhhhhhfffffjhhhhhhjjjffffhhhhhhhhhhhhhhhhhhfffffjhhhhhhjjjffffhhhhhhhhhhhh",
"j#ooco#ohhhhhppp#qpphjjkkkkkggggggbhhhjjhhhhhhhhhhhhhhhhhhhhhhhhhhhhffffjjhhhhhhhhhhfffjhhhhhhhhhhhhhhhhhhhhffffjjhhhhhhhhhhfffjhhhhhhhhhhhhhhhhhffffjjhhhhhhhhhhfffjhhhhhhhhhhhh",
"jhhhhhhhhhhhhhhhhhhhhjjhkkkkkkggggbhhhjjhhhhhhhhhhhhhhhhhhhhhhhhhhhhfffjhhhhhhhhhhhhhfffhhhhhhhhhhhhhhhhhhhhfffjhhhhhhhhhhhhhfffhhhhhhhhhhhhhhhhhfffjhhhhhhhhhhhhhfffhhhhhhhhhhhh",
"hjjjjjjjjjjjjjjjjjjjjjjjjjjjjjjjjjjjjjjjhhhhhhhhhhhhhhhhhhhhhhhhhhhfffjjhhhhhhhhhhhhhffffhhhhhhhhhhhhhhhhhhfffjjhhhhhhhhhhhhhffffhhhhhhhhhhhhhhhfffjjhhhhhhhhhhhhhffffhhhhhhhhhhh",
"hllllllllllllllllllllllllllllllllllllljjhhhhhhhhhhhhhhhhhhhhhhhhhhhffjjhhhhhhhhhhhhhhhfffhhhhhhhhhhhhhhhhhhffjjhhhhhhhhhhhhhhhfffhhhhhhhhhhhhhhhffjjhhhhhhhhhhhhhhhfffhhhhhhhhhhh",
"hhhhhllhhhhhhhhhhhhhhhhhhhllkkkkkkbhhhjjhhhhhhhhhhhhhhhhhhhhhhhhhhhffjjhhhhhhhhhhhhhhhjffhhhhhhhhhhhhhhhhhhffjjhhhhhhhhhhhhhhhjffhhhhhhhhhhhhhhhffjjhhhhhhhhhhhhhhhjffhhhhhhhhhhh",
"hhhhhllhhhhhhhhhhhhhhhhhhhllbbbbbbnnhhjjhhhhhhhhhhhhhhhhhhhhhhhhhhhnfjnhhhhhhhhhhhhhhhjffhhhhhhhhhhhhhhhhhhnfjnhhhhhhhhhhhhhhhjffhhhhhhhhhhhhhhhnfjnhhhhhhhhhhhhhhhjffhhhhhhhhhhh",
"hhjhhllhhhhhhhhhhhhhhhhhhhllhhnnnnnnhjjjhhhhhhhhhhhhhhhhhhhhhhhhhhhnnhhhhhhhhhhhhhhhhjjffhhhhhhhhhhhhhhhhhhnnhhhhhhhhhhhhhhhhjjffhhhhhhhhhhhhhhhnnhhhhhhhhhhhhhhhhjjffhhhhhhhhhhh",
"hjhhhllhhhhhhhhhhhhhhhhhhhllhhhnnnhhjjjhhhhhhhhhhhhhhhhhhhhhhhhhhhhhhhhhhhhhhhhhhhhhhnnfnhhhhhhhhhhhhhhhhhhhhhhhhhhhhhhhhhhhhnnfnhhhhhhhhhhhhhhhhhhhhhhhhhhhhhhhhhnnfnhhhhhhhhhhh",
"hhjjjjjjjjjjjjjjjjjjjjjjjjjjjjjjjjjjjjhhhhhhhhhhhhhhhhhhhhhhhhhhhhhhhhhhhhhhhhhhhhhhhhhnnhhhhhhhhhhhhhhhhhhhhhhhhhhhhhhhhhhhhhhnnhhhhhhhhhhhhhhhhhhhhhhhhhhhhhhhhhhhnnhhhhhhhhhhh",
"hhhhhhhhhhhhhhhhhhhhhhhhhhhhhhhhhhhhhhhhhhhhhhhhhhhhhhhhhhhhhhhhhhhhhhhhhhhhhhhhhhhhhhhhhhhhhhhhhhhhhhhhhhhhhhhhhhhhhhhhhhhhhhhhhhhhhhhhhhhhhhhhhhhhhhhhhhhhhhhhhhhhhhhhhhhhhhhhh"
};
