/* XPM */
static char *BigSanta1[] = {
/* width height num_colors chars_per_pixel */
"   177    34       17            1",
/* colors */
". c #ffffff",
"# c #ff9933",
"a c #f1f1f1",
"b c #cccccc",
"c c #cc9999",
"d c #cc9933",
"e c #cc6633",
"f c #cc0000",
"g c none",
"h c #993333",
"i c #990000",
"j c #663300",
"k c #33cc00",
"l c #111111",
"m c #009900",
"n c #0066cc",
"o c #003399",
/* pixels */
"ggggggggggggggggggggggggggggggggggggggggggggggggggggggggggggggggggggggggggggggggggggggggggggggggggggggggggggggggggggggggggggggggggggggggggggggggggggggggggggggggggggggggggggggggg",
"gggggggggggggggggggggggggggggggggggggggggggggggggggggggggggggggggggggggggggggggggggggghggggggggggggggggggggggggggggggggggggghggghggggggggggggggggggggggggggggggghggghgggggggggggg",
"ggggggggggggggggggggggggggggggggggggggggggggggggggggggggggggggggggggggggggggggggghgggghghhhggggggggggggggggggggggggggggggggghhgghhgggggggggggggggggggggggggggggghhgghhghhhggggggg",
"ggggggggggggggggggggggggggggggggggggggggggggggggggggggggggggggggggggggggggggggggghhggghhhgggggggggggggggggggggggggggggggggggghhgghhhhgggggggggggggggggggggggggggghhgghhhggggggggg",
"gggggggggggggggggggggggggggggggggggggggggggggggggggggggggggggggggggggggggggggggggghhhghhgggggggggggggggggggggggggggggggggggggghhhhgggggggggggggggggggggggggggggggghhhhggggggggggg",
"gggggggggggggggggggggggffffggggggggggggggggggggggggggggggggggggggggggggggggggggggggghhhgggggghggggggggggggggggggggggggggggggggghhggggggggggggggggggggggggggggggggggghhgggggghgggg",
"gggggggggggggggggggggffiffffgggggggggggggggggggggggggggggggggggggggggggggggggggggggggghgggggghhhhggggggggggggggggggggggggggggggghggggggghgggggggggggggggggggggggggggghhggggghghhg",
"ggggggggggggggggggggififfffffggggggggggggggggggggggggggggggggggggggggggggggggggggggggghhggggghhhgggggggggggggggggggggggggggggggghhggggghhhhgggggggggggggggggggggggggghhggggghhhgg",
"gggggggggggggggggggffiffifffffagggggggggggggggggggggggggggggggggggggggggggggggggggggggghhgggghggggggggggggggggggggggggggggggggggghhggghhhhgggggggggggggggggggggggggggghhgggghhggg",
"ggggggggggggggggggfiifiififffbgggggggggggggggggggggggggggggggggggggggggggggggggggggggggghhhhhggggggggggggggggggggggggggggggggggggghhgghgggggggggggggggggggggggggggggggghhghhggggg",
"gggggggggggggggggfigggffiffcacgggggggggggggggggggggggggggggggggggggggggggggggggggggggggggghhggggggggggggggggggggggggggggggggggggggghhhhggggggggggggggggggggggggggggggggghhhgggggg",
"gggggggggggggggg.igggggiffcalccgggggggggggggggggggggggggggggggggggggggggggggggggggggggggheeeeeggggggggggggggggggggggggggggggggggggeeeeeegggggggggggggggggggggggggggggggheeeeggggg",
"ggggggggggggggg...gggggfbabcccccgggggggggggggggggggggggggggggggggggggggggggggggggggggllehhjjheeggggggggggggggggggggggggggggggggeejhheheegggggggggggggggggggggggggggggeejhheheeggg",
"gggggggggggggggg.ggggggbbbabcbbccggggggggggggggggggggggggggggggggggggeeeeeeggggggeeeellejjjeeleeggggggggggggeeeeeeeeggggggeelleeejhjeeleegggggggggggeeeeeeggggggeeellleejjeeleegg",
"ggggggggggggggggggggggggbbbaabaacgggggggggggggggggggggggggggggggggeeeeeeeeeeeeeeeeeeeelleeeeeeeeegggggggggeeeeeeeeeeeeeeeeeeelleeeeeeeeeeggggggggeeeeeeeeeeeeeeeeeeelleeeeeeeeeeg",
"ggggggggggggggggiffgggggbabbbabaggggggggggggggggggggggggggggggggggeeeeeeeeeeeeeeeeeeeeelleehhheejgggggggggeeeeeeeeeeeeeeeeeeeelleeehheeeeelglggggeeeeeeeeeeeeeeeeeeeelleeehheeejg",
"ggggggggggggggggfffhhggiiaibabbagggggggggggggggggggggggggggggggggeeeeeeeeeeeeeeeeeeeeeeellhhhhhejlgggggggeeeeeeeeeeeeeeeeeeeeeeelhhhheeeejggglgleeeeeeeeeeeeeeeeeeeeeeelhhheheejg",
"gggggggggggggggbifihhgifiiiaiagggggggggggggggggggggggggggggggglgleeeeeeeeeeeeeeeeeeeeeehellggghhgglglglgleeeeeeeeeeeeeeeeeeeeeehelhhgggeejggggggeeeeeeeeeeeeeeeeeeeeeehelhggghegg",
"gggggggagaggkfmbbbbhhgiffffifffggglgggggggggggggggggggglglglgggggeeeeeeheeeeeeeeeeeeehhehhlggggggggggggggeeeeeeheeeeeeeeeeeeehhehllgggggggggggggeeeeeeheeeeeeeeeeeeehhehlgggggggg",
"gggbgnbnanfgkf##f#fghhifffffffiigfflllglglglglglglglglgggggggggggeeeeeeehhheeeeeeeeeeehegglllggggggggggggeeeeeeehhheeeeeeeeeeehegllllllllllllllleeeeeeehhheeeeeeeeeeehegggggggggg",
"gggbbbnnaongkfk##ffghhiifififfffafffgggggggggggggggggggggggglllllheeeeeeehhhhhhhheeeeeeegglllllllllllllllheeeeeeehhhhhhhheeeeeeeglllllllllllllllheeeeeeehhhhhhhheeeeeeegggggggggg",
"gmm#bmmmanooonno#nonhhiiffiiiiffaffflllllllllllllllllllllllllllgghheeeeeeehhhhhhheeeeeehgggggllllllllllllhheeeeeeehhhhhhheeeeeehgggggggggggggggghheeeeeeehhhhhhheeeeeehgggggggggg",
"ggdmbdmmffofannn#nnnhhiiifffffiiffggglllllllllllllllllllllllggggggeeeeeeeeehhhhhheeeeehgggggggggggggggggggeeeeeeeeehhhhhheeeeehggggggggggggggggggeeeeeeeeehhhhhheeeeehggggggggggg",
"ghmmbmmdffoffnnn#nonhhhiiifffffffagggghhgggggggggggggggggggggggggggggeeeeeegggggggeeehgggggggggggggggggggggggeeeeeegggggggeeehggggggggggggggggggggggeeeeeegggggggeeehgggggggggggg",
"hmdmbdmmfaoffnno#nnnghhiiiiiffffff.ggghhgggggggggggggggggggggggggggggggeeeegggggggeeehgggggggggggggggggggggggggeeeegggggggeeehggggggggggggggggggggggggeeeegggggggeeehgggggggggggg",
"h#mmbm#mffofannn#onnghhgiiiiiiffff.ggghhggggggggggggggggggggggggggggggggeehgggggggeehgggggggggggggggggggggggggggeehgggggggeehggggggggggggggggggggggggggeehgggggggeehggggggggggggg",
"ghhhhhhhhhhhhhhhhhhhhhhhhhhhhhhhhhhhhhhhggggggggggggggggggggggggggggggggeeeggggggeeehgggggggggggggggggggggggggggeeeggggggeeehggggggggggggggggggggggggggeeeggggggeeehggggggggggggg",
"gjjjjjjjjjjjjjjjjjjjjjjjjjjjjjjjjjjjjjhhggggggggggggggggggggggggggggggggeeeegggggeehhgggggggggggggggggggggggggggeeeegggggeehhggggggggggggggggggggggggggeeeegggggeehhggggggggggggg",
"gggggjjgggggggggggggggggggjjiiiiii.ggghhgggggggggggggggggggggggggggggggggheegggggeehgggggggggggggggggggggggggggggheegggggeehggggggggggggggggggggggggggggheegggggeehgggggggggggggg",
"gggggjjgggggggggggggggggggjjaaaaaallgghhggggggggggggggggggggggggggggggggghhelgggeehhggggggggggggggggggggggggggggghhelgggeehhgggggggggggggggggggggggggggghhelgggeehhgggggggggggggg",
"gghggjjgggggggggggggggggggjjggllllllghhhgggggggggggggggggggggggggggggggggghelgggeehggggggggggggggggggggggggggggggghelgggeehgggggggggggggggggggggggggggggghelgggeehggggggggggggggg",
"ghgggjjgggggggggggggggggggjjggglllgghhhgggggggggggggggggggggggggggggggggggggggggllggggggggggggggggggggggggggggggggggggggllgggggggggggggggggggggggggggggggggggggllgggggggggggggggg",
"gghhhhhhhhhhhhhhhhhhhhhhhhhhhhhhhhhhhhggggggggggggggggggggggggggggggggggggggggggggggggggggggggggggggggggggggggggggggggggggggggggggggggggggggggggggggggggggggggggggggggggggggggggg",
"ggggggggggggggggggggggggggggggggggggggggggggggggggggggggggggggggggggggggggggggggggggggggggggggggggggggggggggggggggggggggggggggggggggggggggggggggggggggggggggggggggggggggggggggggg"
};
