/* XPM */
static char *BigSantaRudolf3[] = {
/* width height num_colors chars_per_pixel */
"   177    34       18            1",
/* colors */
". c #ffffff",
"# c #ff9933",
"a c #ff0000",
"b c #f1f1f1",
"c c #cccccc",
"d c #cc9999",
"e c #cc9933",
"f c #cc6633",
"g c #cc0000",
"h c none",
"i c #993333",
"j c #990000",
"k c #663300",
"l c #33cc00",
"m c #111111",
"n c #009900",
"o c #0066cc",
"p c #003399",
/* pixels */
"hhhhhhhhhhhhhhhhhhhhhhhhhhhhhhhhhhhhhhhhhhhhhhhhhhhhhhhhhhhhhhhhhhhhhhhhhhhhhhhhhhhhhhihhhhhhhhhhhhhhhhhhhhhhhhhhhhhhhhhhhhhhhhhhhhhhhhhhhhhhhhhhhhhhhhhhhhhhhhhhhhhhhhhhhhhhhhhh",
"hhhhhhhhhhhhhhhhhhhhhhhhhhhhhhhhhhhhhhhhhhhhhhhhhhhhhhhhhhhhhhhhhhhhhhhhhhhhhhhhhihhhhihiiihhhhhhhhhhhhhhhhhhhhhhhhhhhhhhhhhhhhhhhhhhhhhhhhhhhhhhhhhhhhhhhhhhhhhihhhihhhhhhhhhhhh",
"hhhhhhhhhhhhhhhhhhhhhhhhhhhhhhhhhhhhhhhhhhhhhhhhhhhhhhhhhhhhhhhhhhhhhhhhhhhhhhhhhiihhhiiihhhhhhhhhhhhhhhhhhhhhhhhhhhhhhhhhhhihhhihhhhhhhhhhhhhhhhhhhhhhhhhhhhhhhiihhiihiiihhhhhhh",
"hhhhhhhhhhhhhhhhhhhhhhhhhhhhhhhhhhhhhhhhhhhhhhhhhhhhhhhhhhhhhhhhhhhhhhhhhhhhhhhhhhiiihiihhhhhhhhhhhhhhhhhhhhhhhhhhhhhhhhhhhhiihhiihhhhhhhhhhhhhhhhhhhhhhhhhhhhhhhiihhiiihhhhhhhhh",
"hhhhhhhhhhhhhhhhhhhhhhhhhhhhhhhhhhhhhhhhhhhhhhhhhhhhhhhhhhhhhhhhhhhhhhhhhhhhhhhhhhhhiiihhhhhhhhhhhhhhhhhhhhhhhhhhhhhhhhhhhhhhiihhiiiihhhhhhhhhhhhhhhhhhhhhhhhhhhhhiiiihhhhhhhhhhh",
"hhhhhhhhhhhhhhhhhhhhhgggghhhhhhhhhhhhhhhhhhhhhhhhhhhhhhhhhhhhhhhhhhhhhhhhhhhhhhhhhhhhhihhhhhhhhhhhhhhhhhhhhhhhhhhhhhhhhhhhhhhhiiiihhhhhhhhhhhhhhhhhhhhhhhhhhhhhhhhhhiihhhhhhihhhh",
"hhhhhhhhhhhhhhhhhhhggjgggghhhhhhhhhhhhhhhhhhhhhhhhhhhhhhhhhhhhhhhhhhhhhhhhhhhhhhhhhhhhiihhhhihhhhhhhhhhhhhhhhhhhhhhhhhhhhhhhhhhiihhhhhhhihhhhhhhhhhhhhhhhhhhhhhhhhhhhiihhhhhihiih",
"hhhhhhhhhhhhhhhhhhjgjgggggghhhhhhhhhhhhhhhhhhhhhhhhhhhhhhhhhhhhhhhhhhhhhhhhhhhhhhhhhhhhiihhhiiiihhhhhhhhhhhhhhhhhhhhhhhhhhhhhhhhihhhhhhiiiihhhhhhhhhhhhhhhhhhhhhhhhhhiihhhhhiiihh",
"hhhhhhhhhhhhhhhhhggjggjgggggbhhhhhhhhhhhhhhhhhhhhhhhhhhhhhhhhhhhhhhhhhhhhhhhhhhhhhhhhhhhihhhiiihhhhhhhhhhhhhhhhhhhhhhhhhhhhhhhhhiihhhhiiiihhhhhhhhhhhhhhhhhhhhhhhhhhhhiihhhhiihhh",
"hhhhhhhhhhhhhhhhgjjgjjgjgggchhhhhhhhhhhhhhhhhhhhhhhhhhhhhhhhhhhhhhhhhhhhhhhhhhhhhhhhhhhhiiiiiihhhhhhhhhhhhhhhhhhhhhhhhhhhhhhhhhhhiihhhihhhhhhhhhhhhhhhhhhhhhhhhhhhhhhhhiihiihhhhh",
"hhhhhhhhhhhhhhhgjhhhggjggdbdhhhhhhhhhhhhhhhhhhhhhhhhhhhhhhhhhhhhhhhhhhhhhhhhhhhhhhhhhhhhhhiihhhhhhhhhhhhhhhhhhhhhhhhhhhhhhhhhhhhhhiiiiihhhhhhhhhhhhhhhhhhhhhhhhhhhhhhhhhiiihhhhhh",
"hhhhhhhhhhhhhh.jhhhhhjggdbmddhhhhhhhhhhhhhhhhhhhhhhhhhhhhhhhhhhhhhhhhhhhhhhhhhhhhhhhhhhhifffffhhhhhhhhhhhhhhhhhhhhhhhhhhhhhhhhhhhhffffffhhhhhhhhhhhhhhhhhhhhhhhhhhhhhhhiffffhhhhh",
"hhhhhhhhhhhhh...hhhhhgcbcdddddhhhhhhhhhhhhhhhhhhhhhhhhhhhhhhhhhhhhhhhhhhhhhhhhhhhhhhhmmfiikkiffhhhhhhhhhhhhhhhhhhhhhhhhhhhhhhhhffkiififfhhhhhhhhhhhhhhhhhhhhhhhhhhhhhffkiififfhhh",
"hhhhhhhhhhhhhh.hjgghhcccbcdccddhhhmhhhhhhhhhhhhhhhhhhhhhhhhhhhhhhhhhhffffffhhhhhhffffmmfkkkffmffhhhhhhhhhhhhfffffffhhhhhhfffmmfffkikffmffhhhhhhhhhhhffffffhhhhhhfffmmmffkkffmffhh",
"hhhhhhhhhhhhhhhhggghhhcccbbcbbdhhgghhhhhhhhhhhhhhhhhhhhhhhhhhhhhhhffffffffffffffffffffmmfffffffffhhhhhhhhhfffffffffffffffffffmmffffffffffhhhmhmhhfffffffffffffffffffmmffffffffaaa",
"hhhhhhhhbpohlhhcjgjhhhcbcccbcbghbggghhhmhmhmhmhmhmhmhmhhhhhhhhhhhhfffffffffffffffffffffmmffiiiffkhhmmhmhmmffffffffffffffffffffmmfffiifffffmhhhhhmffffffffffffffffffffmmfffiiffaaa",
"hhhhhhhbbopppgncccciihhjjcbccgggbgggmmmhhhhhhhhhhhhhhhhmhhmhmhhhhfffffffffffffffffffffffmmiiiiifkmhhhhhhhffffffffffffffffffffffmmiiiiffffkhhhhhhffffffffffffffffffffffmmiiififaaa",
"hhhchocoggpgbg##g#giihjgjjjbgggghhhhhhhhhhhhhhhhhhhhhhhhhhhhhhmhmffffffffffffffffffffffifmmhhhiihhhhhhhhhfffffffffffffffffffffffmmiihhhffkhhhhhhfffffffffffffffffffffffmmihhhifhh",
"hhhcccooggpgggl##ggiihjggggjgggghhhhhhhhhhhhhhhhhhhhhhhhhhhhhhhhhffffffifffffffffffffiifiimhhhhhhhhhhhhhhffffffifffffffffffffiifiimhhhhhhhhhhhhhffffffifffffffffffffiifiimhhhhhhh",
"hnn#cnnngbpggoop#opoiijggggggjjhhhhhhhhhhhhhhhhhhhhhhhhhhhhhhhhhhfffffffiiiffffffffffiiifmmmmhhhhhhhhhhhhfffffffiiiffffffffffiiifmmmmmmmmmmmmmmhfffffffiiiffffffffffiiifmmmhhhhhh",
"hnencennggpghooo#oooiijjgjgjjjgbhhhhiihhhhhhhhhhhhhhhhhhhhhhmmmmmfffffffiiiiiiiifffffiiihhmmmmmmmmmmmmmmmfffffffiiiiiiiifffffiiihhmmmmmmmmmmmmmmfffffffiiiiiiiifffffiiihhmmhhhhhh",
"hnnncnnehhhhhooo#opoiijjggjjggggbhhihimmmmmmmmmmmmmmmmmmmmmmmmmmmffffffffiiiiiiiifffffiihhhhhmmmmmmmmmmmmffffffffiiiiiiiifffffiihhhhhhhhhhhhhhhmffffffffiiiiiiiifffffiihhhhhhhhhh",
"hnencennhhhhhoop#oooiijjjggggggggbhhhiimmmmmmmmmmmmmmmmmmmmmhhhhhhfffffffihiiiiiiifffffihhhhhhhhhhhhhhhhhhfffffffihiiiiiiifffffihhhhhhhhhhhhhhhhhfffffffihiiiiiiifffffihhhhhhhhhh",
"hinncn#nhhhhhooo#pooiiijjjgggggggbhhhhiihhhhhhhhhhhhhhhhhhhhhhhhhhhfffffiihhhhhhhhhhfffiihhhhhhhhhhhhhhhhhhfffffiihhhhhhhhhhfffiihhhhhhhhhhhhhhhhhfffffiihhhhhhhhhhfffiihhhhhhhhh",
"ihhhhhhhhhhhhhhhhhhhhiijjjjjggggggbhhhiihhhhhhhhhhhhhhhhhhhhhhhhhhhffffiihhhhhhhhhhhhffffiihhhhhhhhhhhhhhhhffffiihhhhhhhhhhhhffffiihhhhhhhhhhhhhhhffffiihhhhhhhhhhhhffffiihhhhhhh",
"ihhhhhhhhhhhhhhhhhhhhiihjjjjjjggggbhhhiihhhhhhhhhhhhhhhhhhhhhhhhhhfffffihhhhhhhhhhhhhhfffffihhhhhhhhhhhhhhfffffihhhhhhhhhhhhhhfffffihhhhhhhhhhhhhfffffihhhhhhhhhhhhhhfffffihhhhhh",
"hiiiiiiiiiiiiiiiiiiiiiiiiiiiiiiiiiiiiiiihhhhhhhhhhhhhhhhhhhhhhhhhffffiihhhhhhhhhhhhhhhhhfifmhhhhhhhhhhhhhffffiihhhhhhhhhhhhhhhhhfifmhhhhhhhhhhhhffffiihhhhhhhhhhhhhhhhhfifmhhhhhh",
"hkkkkkkkkkkkkkkkkkkkkkkkkkkkkkkkkkkkkkiihhhhhhhhhhhhhhhhhhhhhhhhhfffihhhhhhhhhhhhhhhhhhhhfmmhhhhhhhhhhhhhfffihhhhhhhhhhhhhhhhhhhhfmmhhhhhhhhhhhhfffihhhhhhhhhhhhhhhhhhhhfmmhhhhhh",
"hhhhhkkhhhhhhhhhhhhhhhhhhhkkjjjjjjbmmhiihhhhhhhhhhhhhhhhhhhhhhhhfffiihhhhhhhhhhhhhhhhhhhhhhhhhhhhhhhhhhhfffiihhhhhhhhhhhhhhhhhhhhhhhhhhhhhhhhhhfffiihhhhhhhhhhhhhhhhhhhhhhhhhhhhh",
"hhhhhkkhhhhhhhhhhhhhhhhhhhkkbbbbbbmmmhiihhhhhhhhhhhhhhhhhhhhhhhhffiiihhhhhhhhhhhhhhhhhhhhhhhhhhhhhhhhhhhffiiihhhhhhhhhhhhhhhhhhhhhhhhhhhhhhhhhhffiiihhhhhhhhhhhhhhhhhhhhhhhhhhhhh",
"hhihhkkhhhhhhhhhhhhhhhhhhhkkhhhmmmmmhiiihhhhhhhhhhhhhhhhhhhhhhhhffhimhhhhhhhhhhhhhhhhhhhhhhhhhhhhhhhhhhhffhimhhhhhhhhhhhhhhhhhhhhhhhhhhhhhhhhhhffhimhhhhhhhhhhhhhhhhhhhhhhhhhhhhh",
"hihhhkkhhhhhhhhhhhhhhhhhhhkkhhhhhhhhiiihhhhhhhhhhhhhhhhhhhhhhhhhmfhmmhhhhhhhhhhhhhhhhhhhhhhhhhhhhhhhhhhhmfhmmhhhhhhhhhhhhhhhhhhhhhhhhhhhhhhhhhhmfhmmhhhhhhhhhhhhhhhhhhhhhhhhhhhhh",
"hhiiiiiiiiiiiiiiiiiiiiiiiiiiiiiiiiiiiihhhhhhhhhhhhhhhhhhhhhhhhhhmmhhhhhhhhhhhhhhhhhhhhhhhhhhhhhhhhhhhhhhmmhhhhhhhhhhhhhhhhhhhhhhhhhhhhhhhhhhhhhmmhhhhhhhhhhhhhhhhhhhhhhhhhhhhhhhh",
"hhhhhhhhhhhhhhhhhhhhhhhhhhhhhhhhhhhhhhhhhhhhhhhhhhhhhhhhhhhhhhhhhhhhhhhhhhhhhhhhhhhhhhhhhhhhhhhhhhhhhhhhhhhhhhhhhhhhhhhhhhhhhhhhhhhhhhhhhhhhhhhhhhhhhhhhhhhhhhhhhhhhhhhhhhhhhhhhh"
};
