/* XPM */
static char *MediumSantaRudolf4[] = {
/* width height num_colors chars_per_pixel */
"    88    17       20            1",
/* colors */
". c #ffffff",
"# c #ff9933",
"a c #ff0000",
"b c #f1f1f1",
"c c #cccccc",
"d c #cc9999",
"e c #cc9933",
"f c #cc6633",
"g c #cc0000",
"h c none",
"i c #c0c0c0",
"j c #b2b2b2",
"k c #993333",
"l c #990000",
"m c #663300",
"n c #111111",
"o c #009900",
"p c #0066cc",
"q c #003399",
"r c #000000",
/* pixels */
"hhhhhhhhhhhhhhhhhhhhhhhhhhhhhhhhhhhhhhhhhhhkkhhhhhhhhhhhhhhhhkhkhhhhhhhhhhhhhhhkhkhkhhhh",
"hhhhhhhhhhhhhhhhhhhhhhhhhhhhhhhhhhhhhhhhkhkkhhhhhhhhhhhhhhhhhkkhkkhhhhhhhhhhhhhhkkkkhhhh",
"hhhhhhhhhhhgghhhhhhhhhhhhhhhhhhhhhhhhhhhhkkhhhhhhhhhhhhhhhhhhhkkhhhhhhhhhhhhhhhhhkkhhhhh",
"hhhhhhhhhllggghhhhhhhhhhhhhhhhhhhhhhhhhhhhkkhhkkhhhhhhhhhhhhhhhkkhhkhhhhhhhhhhhhhhkhhkhk",
"hhhhhhhhgllgggihhhhhhhhhhhhhhhhhhhhhhhhhhhhkkkkhhhhhhhhhhhhhhhhhkkhkkhhhhhhhhhhhhhhkkkkh",
"hhhhhhh.hhhgdndhhhhhhhhhhhhhhhhhhhhhhhhhhhhhfffhhhhhhhhhhhhhhhhhkfffhhhhhhhhhhhhhhhkffhh",
"hhhhhhhhhhhcbdcdhhhhhhhhhhhhhhhhhhhhhhhhffnfmfnfhhhhhhhhhhhhhffnmmffhhhhhhhhhhhhffnmmffh",
"hhhhhhhhghhcccchhhhhhhhhhhhhhhhhhffffffffffnfkkfhhhhhhffffffffffnffffhhhhffffffffffnfkaa",
"hhhbbhgcckhglljggg.nhhnhnhhnhnhnfffffkkffffknhhkhnhnhfffffkffffffnhfmhnhfffffkffffffnhaa",
"hccpggg#ghkgggllhhhhhhhhhhhhhhhhffffffkfffkknnnhhhhhhfffffkffffkfnnhhhhhfffffkffffkfnhhh",
"ooeobgppppklglgghkknnnnnnnnnnnnnnffffkfkfffhhhnnnnnnnnffffkkffffhhnnnnnnnffffkkffffhhhhh",
"koeohhpqppkllggg.hhkhhhhhhhhhhhhhhffhhhhhkfhhhhhhhhhhhhffhhhhhffhhhhhhhhhhffhhhhhffhhhhh",
"hhhhhhhhhhkhlllgghhkhhhhhhhhhhhhhffhhhhhhhffhhhhhhhhhhffhhhhhhhfhhhhhhhhhffhhhhhhhfhhhhh",
"mmmmmmmmmmmmmmmmmmmkhhhhhhhhhhhhhfhhhhhhhhhfhhhhhhhhhhfhhhhhhhhfhhhhhhhhhfhhhhhhhhfhhhhh",
"hhhmhhhhhhhhhmhh..hkhhhhhhhhhhhhhnhhhhhhhhhfhhhhhhhhhhrhhhhhhhhkhhhhhhhhhrhhhhhhhhkhhhhh",
"hhhkhhhhhhhhhkhhhrkhhhhhhhhhhhhhhhhhhhhhhhhnhhhhhhhhhhhhhhhhhhhnhhhhhhhhhhhhhhhhhhnhhhhh",
"kkkkkkkkkkkkkkkkkkhhhhhhhhhhhhhhhhhhhhhhhhhhhhhhhhhhhhhhhhhhhhhhhhhhhhhhhhhhhhhhhhhhhhhh"
};
