#define snow04_width 8
#define snow04_height 8
static char snow04_bits[] = {
   0x22, 0x6b, 0x14, 0x2a, 0x14, 0x6b, 0x22, 0x00};
