#define tannenbaum_width 56
#define tannenbaum_height 56
static char tannenbaum_bits[] = {
   0x00, 0x00, 0x00, 0x00, 0x00, 0x00, 0x00, 0x00, 0x00, 0x00, 0x04, 0x00,
   0x00, 0x00, 0x00, 0x00, 0x00, 0x04, 0x00, 0x00, 0x00, 0x00, 0x00, 0x00,
   0x04, 0x00, 0x00, 0x00, 0x00, 0x00, 0x00, 0x04, 0x00, 0x00, 0x00, 0x00,
   0x00, 0x00, 0x04, 0x00, 0x00, 0x00, 0x00, 0x00, 0x00, 0x04, 0x00, 0x00,
   0x00, 0x00, 0x00, 0x00, 0x04, 0x00, 0x00, 0x00, 0x00, 0x00, 0x00, 0x04,
   0x00, 0x00, 0x00, 0x00, 0x00, 0x00, 0x0a, 0x00, 0x00, 0x00, 0x00, 0x00,
   0x00, 0x0a, 0x00, 0x00, 0x00, 0x00, 0x00, 0x00, 0x0a, 0x00, 0x00, 0x00,
   0x00, 0x00, 0x00, 0x11, 0x00, 0x00, 0x00, 0x00, 0x00, 0x00, 0x11, 0x00,
   0x00, 0x00, 0x00, 0x00, 0x80, 0x20, 0x00, 0x00, 0x00, 0x00, 0x00, 0x80,
   0x20, 0x00, 0x00, 0x00, 0x00, 0x00, 0x40, 0x40, 0x00, 0x00, 0x00, 0x00,
   0x00, 0x20, 0x80, 0x00, 0x00, 0x00, 0x00, 0x00, 0xd0, 0x0f, 0x01, 0x00,
   0x00, 0x00, 0x00, 0x3c, 0xf9, 0x07, 0x00, 0x00, 0x00, 0x00, 0x87, 0x10,
   0x1c, 0x00, 0x00, 0x00, 0x80, 0x80, 0x20, 0x20, 0x00, 0x00, 0x00, 0x00,
   0x40, 0x20, 0x00, 0x00, 0x00, 0x00, 0x00, 0x40, 0x40, 0x00, 0x00, 0x00,
   0x00, 0x00, 0x20, 0x42, 0x00, 0x00, 0x00, 0x00, 0x00, 0x20, 0x82, 0x00,
   0x00, 0x00, 0x00, 0x00, 0x10, 0x81, 0x00, 0x00, 0x00, 0x00, 0x00, 0x18,
   0x00, 0x01, 0x00, 0x00, 0x00, 0x00, 0x48, 0x20, 0x03, 0x00, 0x00, 0x00,
   0x00, 0x04, 0x00, 0x02, 0x00, 0x00, 0x00, 0x00, 0x02, 0x07, 0x04, 0x00,
   0x00, 0x00, 0x80, 0xe1, 0x1c, 0x08, 0x00, 0x00, 0x00, 0xc0, 0x18, 0x20,
   0x30, 0x00, 0x00, 0x00, 0x30, 0x1c, 0xc0, 0x7f, 0x00, 0x00, 0x00, 0x1c,
   0x0a, 0x80, 0xf0, 0x01, 0x00, 0x00, 0xa2, 0x8b, 0x00, 0x81, 0x07, 0x00,
   0x00, 0x89, 0x44, 0x00, 0x01, 0x00, 0x00, 0x00, 0x00, 0x02, 0x10, 0x02,
   0x00, 0x00, 0x00, 0x00, 0x0b, 0x00, 0x04, 0x00, 0x00, 0x00, 0x80, 0x00,
   0x00, 0x0c, 0x00, 0x00, 0x00, 0x60, 0x00, 0x00, 0x10, 0x00, 0x00, 0x00,
   0x30, 0x00, 0x00, 0x60, 0x00, 0x00, 0x00, 0x0e, 0xf8, 0x01, 0xc2, 0x00,
   0x00, 0xe0, 0x01, 0x06, 0x07, 0x00, 0x07, 0x00, 0xbf, 0x8f, 0x01, 0x39,
   0x00, 0x78, 0x00, 0x00, 0x78, 0x00, 0xc5, 0x01, 0xfc, 0x0f, 0x00, 0x00,
   0x00, 0x05, 0xfe, 0x03, 0x00, 0x00, 0x00, 0x00, 0x05, 0x00, 0x00, 0x00,
   0x00, 0x00, 0x00, 0x01, 0x00, 0x00, 0x00, 0x00, 0x00, 0x00, 0x00, 0x00,
   0x00, 0x00, 0x00, 0x01, 0x00, 0x00, 0x00, 0x00, 0x00, 0x00, 0x00, 0x00,
   0x00, 0x00, 0x00, 0x01, 0x00, 0x00, 0x00, 0x00, 0x00, 0x00, 0x00, 0x00,
   0x00, 0x00, 0x00, 0x01, 0x00, 0x00, 0x00, 0x00, 0x00, 0x00, 0x00, 0x00,
   0x00, 0x00, 0x00, 0x01, 0x00, 0x00, 0x00, 0x00};
